<?xml version="1.0" encoding="UTF-8"?>
<svg id="Layer_2" data-name="Layer 2" xmlns="http://www.w3.org/2000/svg" viewBox="0 0 333 199">
  <defs>
    <style>
      .cls-1 {
        fill: #ffb845;
      }

      .cls-1, .cls-2, .cls-3, .cls-4, .cls-5 {
        stroke-width: 0px;
      }

      .cls-2 {
        fill: #1d1d1d;
      }

      .cls-6, .cls-7, .cls-8, .cls-9 {
        stroke: #1d1d1d;
        stroke-miterlimit: 10;
      }

      .cls-6, .cls-4 {
        fill: #6445ff;
      }

      .cls-3 {
        fill: #60efbf;
      }

      .cls-7 {
        fill: none;
      }

      .cls-8 {
        fill: #fff;
      }

      .cls-5 {
        fill: #1d1d1d;
      }

      .cls-9 {
        fill: #f7f7f7;
      }
    </style>
  </defs>
  <g id="Layer_1-2" data-name="Layer 1">
    <g>
      <g>
        <g>
          <g>
            <rect class="cls-7" x="66.5" y=".5" width="233" height="128" rx="6.85" ry="6.85"/>
            <rect class="cls-6" x="72" y="6" width="222" height="118" rx="6.85" ry="6.85"/>
          </g>
          <polygon class="cls-7" points="211.5 164 155.5 164 170.5 128.5 195.5 128.5 211.5 164"/>
        </g>
        <rect class="cls-7" x="148.5" y="164.5" width="69" height="5" rx="1.91" ry="1.91"/>
      </g>
      <g>
        <g>
          <rect class="cls-9" x=".5" y="192.5" width="160" height="6" rx="1.91" ry="1.91"/>
          <rect class="cls-9" x="5.5" y="106.5" width="150" height="86" rx="1.91" ry="1.91"/>
          <rect class="cls-9" x="9.5" y="110.66" width="142" height="78.84" rx="1.91" ry="1.91"/>
        </g>
        <rect class="cls-7" x="69.5" y="192.5" width="22" height="3.83" rx="1.91" ry="1.91"/>
      </g>
      <g>
        <rect class="cls-9" x="161" y="37.88" width="116.62" height="116.62" rx="11.21" ry="11.21"/>
        <path class="cls-2" d="M277.62,46.48c0-4.75-3.85-8.6-8.6-8.6h-99.42c-4.75,0-8.6,3.85-8.6,8.6h116.62Z"/>
        <rect class="cls-2" x="161.38" y="45.94" width="116.62" height="4.6"/>
        <circle class="cls-8" cx="168.01" cy="44.74" r="1.73"/>
        <circle class="cls-8" cx="173" cy="44.74" r="1.73"/>
        <circle class="cls-8" cx="177.98" cy="44.74" r="1.73"/>
        <rect class="cls-4" x="202.12" y="67.31" width="48" height="1.98" rx=".99" ry=".99"/>
        <rect class="cls-3" x="252.75" y="67.31" width="7.61" height="1.98" rx=".99" ry=".99"/>
        <rect class="cls-1" x="178.25" y="67.31" width="21.51" height="1.98" rx=".99" ry=".99"/>
        <rect class="cls-4" x="212.14" y="74.98" width="48" height="1.98" rx=".99" ry=".99"/>
        <rect class="cls-3" x="202.01" y="74.98" width="7.61" height="1.98" rx=".99" ry=".99"/>
        <rect class="cls-1" x="178.25" y="74.98" width="21.51" height="1.98" rx=".99" ry=".99"/>
        <rect class="cls-4" x="178.09" y="82.65" width="48" height="1.98" rx=".99" ry=".99"/>
        <rect class="cls-3" x="228.71" y="82.65" width="7.61" height="1.98" rx=".99" ry=".99"/>
        <rect class="cls-1" x="238.34" y="82.65" width="21.51" height="1.98" rx=".99" ry=".99"/>
        <rect class="cls-4" x="202.12" y="89.56" width="48" height="1.98" rx=".99" ry=".99"/>
        <rect class="cls-3" x="252.75" y="89.56" width="7.61" height="1.98" rx=".99" ry=".99"/>
        <rect class="cls-1" x="178.25" y="89.56" width="21.51" height="1.98" rx=".99" ry=".99"/>
        <rect class="cls-4" x="212.14" y="97.23" width="48" height="1.98" rx=".99" ry=".99"/>
        <rect class="cls-3" x="202.01" y="97.23" width="7.61" height="1.98" rx=".99" ry=".99"/>
        <rect class="cls-1" x="178.25" y="97.23" width="21.51" height="1.98" rx=".99" ry=".99"/>
        <rect class="cls-4" x="178.09" y="104.9" width="48" height="1.98" rx=".99" ry=".99"/>
        <rect class="cls-3" x="228.71" y="104.9" width="7.61" height="1.98" rx=".99" ry=".99"/>
        <rect class="cls-1" x="238.34" y="104.9" width="21.51" height="1.98" rx=".99" ry=".99"/>
        <rect class="cls-4" x="202.12" y="112.57" width="48" height="1.98" rx=".99" ry=".99"/>
        <rect class="cls-3" x="252.75" y="112.57" width="7.61" height="1.98" rx=".99" ry=".99"/>
        <rect class="cls-1" x="178.25" y="112.57" width="21.51" height="1.98" rx=".99" ry=".99"/>
        <rect class="cls-4" x="212.14" y="120.25" width="48" height="1.98" rx=".99" ry=".99"/>
        <rect class="cls-3" x="202.01" y="120.25" width="7.61" height="1.98" rx=".99" ry=".99"/>
        <rect class="cls-1" x="178.25" y="120.25" width="21.51" height="1.98" rx=".99" ry=".99"/>
        <rect class="cls-4" x="178.09" y="127.92" width="48" height="1.98" rx=".99" ry=".99"/>
        <rect class="cls-3" x="228.71" y="127.92" width="7.61" height="1.98" rx=".99" ry=".99"/>
        <rect class="cls-1" x="238.34" y="127.92" width="21.51" height="1.98" rx=".99" ry=".99"/>
        <rect class="cls-4" x="202.12" y="134.82" width="48" height="1.98" rx=".99" ry=".99"/>
        <rect class="cls-3" x="252.75" y="134.82" width="7.61" height="1.98" rx=".99" ry=".99"/>
        <rect class="cls-1" x="178.25" y="134.82" width="21.51" height="1.98" rx=".99" ry=".99"/>
      </g>
      <g>
        <rect class="cls-8" x="282.5" y="98.5" width="50" height="95" rx="5.87" ry="5.87"/>
        <circle class="cls-7" cx="307.5" cy="185.5" r="4"/>
        <rect class="cls-2" x="283" y="107" width="49" height="70.5"/>
        <rect class="cls-2" x="298.86" y="102" width="16.78" height="2" rx="1" ry="1"/>
      </g>
      <g>
        <path class="cls-3" d="M307.82,157c-3.97-2.29-7.94-4.59-11.91-6.87-.37-.21-.53-.47-.53-.9.01-4.49.01-8.97,0-13.46,0-.41.14-.66.49-.86,3.93-2.25,7.85-4.52,11.77-6.79.28-.16.52-.17.79,0,3.92,2.27,7.84,4.53,11.76,6.79.33.19.5.46.5.85,0,.84,0,1.68,0,2.52,0,.41-.21.64-.55.65-.35,0-.58-.24-.58-.65,0-.58,0-1.17,0-1.81-.12.06-.21.1-.3.14-3.48,1.81-6.96,3.62-10.45,5.42-.18.09-.26.19-.26.41.01,1.47,0,2.95,0,4.42,0,.08,0,.16.01.29.33-.17.63-.32.93-.48.87-.45,1.74-.91,2.61-1.35.19-.1.25-.21.24-.41-.02-.42,0-.85,0-1.27,0-.53.22-.92.7-1.16.35-.17.68-.36,1.03-.53.15-.07.19-.16.19-.32,0-.93.67-1.67,1.57-1.73.89-.06,1.66.56,1.79,1.46.1.7-.17,1.27-.76,1.65-.6.39-1.24.38-1.84-.01-.17-.11-.3-.13-.47-.03-.29.17-.6.33-.9.47-.14.07-.19.15-.18.31.01.43,0,.87,0,1.3.02.59-.24.98-.76,1.24-1.32.67-2.63,1.36-3.95,2.04-.13.07-.23.13-.23.31,0,2.23,0,4.46,0,6.69,0,.04,0,.09.02.17.1-.05.19-.09.26-.13,3.5-2.02,6.99-4.04,10.49-6.05.17-.1.23-.21.23-.4-.01-.7,0-1.4,0-2.1,0-.08,0-.16-.02-.29-.25.14-.47.26-.7.38-1.15.63-2.3,1.27-3.45,1.89-.16.09-.22.18-.22.37,0,.79-.54,1.47-1.3,1.64-.76.17-1.53-.19-1.89-.87-.35-.68-.2-1.54.38-2.04.59-.52,1.45-.58,2.09-.11.16.12.27.1.42.01,1.48-.82,2.97-1.64,4.46-2.46.15-.08.22-.17.21-.35-.01-.47,0-.94,0-1.42,0-.27.13-.48.4-.56.25-.07.48-.02.62.21.07.11.1.25.1.37,0,1.91,0,3.82,0,5.72,0,.4-.22.64-.54.83-2.58,1.49-5.16,2.98-7.75,4.47-1.38.8-2.76,1.59-4.14,2.39h-.45ZM296.52,146.69c0,.78,0,1.5,0,2.21,0,.21.07.32.25.42,3.47,1.99,6.93,3.99,10.39,5.99.08.05.16.09.28.15,0-.14,0-.24,0-.33,0-2.61,0-5.21,0-7.82,0-.24-.08-.35-.28-.45-1.98-1.03-3.96-2.06-5.94-3.1-.17-.09-.28-.09-.45.03-.64.47-1.5.42-2.09-.1-.58-.5-.74-1.35-.39-2.04.35-.68,1.12-1.05,1.85-.89.79.17,1.33.83,1.34,1.64,0,.18.07.26.22.34,1.83.95,3.66,1.91,5.49,2.87.07.04.15.06.25.11,0-1.16,0-2.28,0-3.4,0-.09-.12-.2-.21-.25-3.48-1.83-6.97-3.65-10.45-5.47-.06-.03-.13-.06-.22-.1,0,.11-.01.19-.01.27,0,2.8,0,5.59,0,8.39,0,.2.07.3.24.39,1.82.94,3.63,1.89,5.44,2.84.16.09.27.08.42-.04.62-.47,1.48-.43,2.07.06.6.51.78,1.35.43,2.05-.35.7-1.13,1.07-1.87.9-.78-.18-1.32-.83-1.33-1.62,0-.18-.05-.27-.21-.35-1.05-.54-2.09-1.09-3.14-1.63-.67-.35-1.33-.7-2.06-1.07ZM318.94,135.51c-.06-.05-.09-.06-.11-.08-3.54-2.04-7.07-4.09-10.61-6.13-.17-.1-.28-.04-.41.04-2.07,1.19-4.13,2.39-6.2,3.58-.18.1-.35.21-.57.34.54.28,1.04.54,1.54.81.15.08.24.06.37-.04.39-.31.84-.43,1.33-.34.92.17,1.5.97,1.39,1.9-.09.82-.87,1.49-1.71,1.46-.89-.03-1.6-.72-1.64-1.63,0-.14-.02-.24-.17-.31-.71-.36-1.4-.73-2.11-1.09-.07-.04-.19-.05-.25-.02-.87.49-1.73.99-2.63,1.51.1.06.17.1.24.14,3.47,1.81,6.94,3.62,10.41,5.44.16.08.28.08.44,0,1.96-1.03,3.93-2.04,5.9-3.07.07-.04.14-.08.23-.13-.08-.05-.14-.09-.19-.12-1.06-.6-2.12-1.2-3.17-1.81-.16-.09-.28-.11-.45,0-.59.39-1.35.34-1.91-.08-.55-.41-.8-1.13-.61-1.79.23-.83,1.01-1.34,1.89-1.23.81.1,1.45.83,1.43,1.67,0,.24.06.36.27.48,1.27.71,2.53,1.43,3.8,2.14.09.05.25.06.35.01.36-.16.71-.36,1.06-.54.7-.36,1.4-.73,2.14-1.11ZM304.54,135.35c0-.31-.24-.56-.55-.56-.31,0-.55.25-.55.56,0,.31.25.56.55.56.31,0,.55-.25.55-.56ZM315.99,141.02c-.3,0-.56.25-.57.55,0,.3.25.56.55.57.3,0,.57-.25.57-.55,0-.3-.25-.56-.55-.57ZM303.61,149.15c-.31,0-.55.25-.55.56,0,.31.24.55.56.55.31,0,.56-.25.56-.55,0-.31-.25-.56-.56-.55ZM309.65,135.08c.31,0,.55-.24.55-.55,0-.31-.24-.55-.55-.55-.31,0-.56.25-.56.55,0,.31.25.55.56.55ZM313.5,149.72c.31,0,.56-.24.56-.55,0-.31-.24-.55-.55-.56-.31,0-.56.24-.56.55,0,.31.24.56.55.56ZM300.35,142.43c0-.31-.23-.56-.54-.56-.31,0-.56.23-.56.54,0,.31.24.56.54.57.31,0,.56-.24.56-.55Z"/>
        <path class="cls-3" d="M319.54,140.97c0-.31.24-.56.55-.57.31,0,.58.26.58.58,0,.3-.26.55-.57.55-.31,0-.55-.24-.56-.56Z"/>
      </g>
      <g>
        <path class="cls-5" d="M71.09,155.71c-1.42,0-2.81.03-4.21-.01-.76-.02-1.54-.09-2.28-.26-3.9-.91-6.64-4.48-6.6-8.56.04-3.95,2.88-7.45,6.75-8.3.17-.04.33-.08.49-.11.13-4.29,2.02-7.41,6.18-8.72,3.87-1.21,7.08.11,9.62,3.2,4.1-2.84,10.27.12,10.54,5.36.71.12,1.43.2,2.12.37,4.01.98,6.65,4.53,6.45,8.65-.23,4.93-3.82,8.35-8.8,8.38-1.4,0-2.79,0-4.23,0,0,.18-.02.33-.02.48,0,2.18,0,4.37,0,6.55,0,1.27.68,1.96,1.94,1.96,1.52,0,3.05,0,4.57,0,.27,0,.4-.07.51-.35.57-1.49,2.1-2.32,3.59-1.98,1.58.35,2.61,1.73,2.5,3.35-.1,1.52-1.34,2.75-2.92,2.89-1.29.12-2.59-.68-3.12-1.92-.07-.16-.13-.32-.2-.49-1.63,0-3.25,0-4.86,0-2.15,0-3.5-1.35-3.51-3.49,0-2.15,0-4.3,0-6.46,0-.17,0-.34,0-.53h-5.91c0,.17-.02.32-.02.47,0,2.86,0,5.72,0,8.58,0,.32.06.49.4.61,1.42.54,2.23,2.03,1.95,3.49-.29,1.51-1.59,2.59-3.1,2.58-1.47,0-2.8-1.08-3.08-2.5-.3-1.53.49-3.01,1.93-3.59.13-.05.26-.1.39-.15v-9.48h-5.52c0,.16,0,.32,0,.49,0,2.17,0,4.34,0,6.5,0,2.11-1.36,3.46-3.49,3.47-1.49,0-2.98,0-4.48,0-.31,0-.46.07-.58.38-.55,1.46-2.01,2.26-3.55,1.97-1.44-.27-2.52-1.56-2.53-3.04-.02-1.54,1.01-2.82,2.53-3.14,1.48-.32,3,.51,3.56,1.97.11.29.25.37.54.37,1.54-.01,3.08,0,4.62,0,1.14,0,1.87-.71,1.87-1.84,0-2.26,0-4.52,0-6.79,0-.11-.01-.21-.02-.36ZM65.52,139.99c-.12,0-.2,0-.27.02-3.13.59-5.63,3.52-5.73,6.72-.13,4.15,3.09,7.47,7.28,7.47,8.21,0,16.43,0,24.64,0,.41,0,.82-.03,1.22-.09,3.72-.58,6.43-4.05,6.04-7.72-.42-3.91-3.66-6.72-7.54-6.52-.84.04-1.11-.21-1.1-1.05.02-1.6-.55-2.95-1.72-4.03-1.96-1.8-4.86-1.89-6.95-.24-.47.37-.87.34-1.2-.12-.09-.13-.17-.27-.25-.4-3.07-4.63-9.4-3.89-12.01.09-1.79,2.74-1.42,6.36.88,8.82.47.51.52.92.16,1.27-.36.34-.78.26-1.26-.23-1.08-1.12-1.78-2.45-2.18-4ZM80.54,168.29c0-.9-.77-1.63-1.67-1.61-.88.02-1.62.76-1.62,1.63,0,.88.77,1.65,1.66,1.64.9,0,1.64-.75,1.63-1.65ZM61.16,163.83c-.9,0-1.64.75-1.64,1.65,0,.89.77,1.66,1.65,1.64.87-.01,1.6-.76,1.61-1.64.01-.9-.73-1.65-1.63-1.65ZM97.05,163.83c-.89,0-1.64.78-1.61,1.67.02.88.77,1.62,1.63,1.62.88,0,1.64-.77,1.64-1.66,0-.9-.75-1.64-1.65-1.63Z"/>
        <path class="cls-4" d="M65.52,139.99c.4,1.54,1.1,2.87,2.18,4,.47.49.9.57,1.26.23.37-.35.31-.76-.16-1.27-2.3-2.45-2.67-6.08-.88-8.82,2.61-3.98,8.94-4.72,12.01-.09.09.13.16.27.25.4.33.46.73.49,1.2.12,2.09-1.65,4.99-1.56,6.95.24,1.17,1.08,1.74,2.43,1.72,4.03,0,.84.26,1.1,1.1,1.05,3.87-.2,7.12,2.6,7.54,6.52.39,3.67-2.31,7.13-6.04,7.72-.4.06-.81.09-1.22.09-8.21,0-16.43,0-24.64,0-4.19,0-7.41-3.32-7.28-7.47.1-3.21,2.6-6.14,5.73-6.72.08-.01.15-.01.27-.02Z"/>
        <path class="cls-1" d="M80.54,168.29c0,.9-.73,1.65-1.63,1.65-.89,0-1.66-.76-1.66-1.64,0-.87.74-1.61,1.62-1.63.9-.02,1.66.72,1.67,1.61Z"/>
        <path class="cls-3" d="M61.16,163.83c.9,0,1.64.76,1.63,1.65-.01.87-.75,1.62-1.61,1.64-.88.01-1.65-.75-1.65-1.64,0-.9.74-1.65,1.64-1.65Z"/>
        <path class="cls-6" d="M97.05,163.83c.9,0,1.65.73,1.65,1.63,0,.89-.76,1.66-1.64,1.66-.86,0-1.61-.74-1.63-1.62-.02-.89.72-1.66,1.61-1.67Z"/>
      </g>
    </g>
  </g>
</svg>